# Blender 4.5.0
# www.blender.org
mtllib chair.mtl
o Cube
v -0.174211 0.613016 0.200326
v -0.174211 0.613016 -0.220326
v 0.223158 0.532948 0.200326
v 0.223158 0.532948 -0.220326
v 0.249474 0.532948 -0.220326
v 0.249474 0.613016 -0.220326
v 0.249474 0.613016 0.200326
v 0.249474 0.532948 0.200326
v 0.249474 0.903502 0.210109
v 0.249474 0.903502 -0.220326
v 0.338489 0.011415 -0.220326
v 0.338489 0.011415 0.200326
v 0.364805 0.011415 -0.220326
v 0.364805 0.011415 0.200326
v -0.200526 0.532948 0.200326
v -0.200526 0.532948 -0.220326
v -0.174211 0.003617 0.200326
v -0.174211 0.003617 -0.220326
v -0.200526 0.003617 0.200326
v -0.200526 0.003617 -0.220326
v -0.174211 0.612901 0.210108
v 0.223158 0.532833 0.210108
v 0.223158 0.612901 0.210108
v 0.249474 0.532833 0.210108
v 0.249474 0.612901 0.210108
v 0.249474 0.903388 0.219891
v -0.200526 0.532833 0.210108
v -0.174211 0.003502 0.210108
v -0.200526 0.003502 0.210108
v -0.174211 0.613016 -0.230109
v 0.223158 0.613016 -0.230109
v 0.223158 0.532948 -0.230109
v 0.249474 0.532948 -0.230109
v 0.249474 0.613016 -0.230109
v 0.249474 0.903502 -0.230109
v -0.200526 0.532948 -0.230109
v -0.200526 0.003617 -0.230109
v -0.174211 0.003617 -0.230109
v -0.174211 0.492947 0.200326
v -0.134211 0.532948 0.200326
v -0.168852 0.512947 0.200326
v -0.154211 0.527589 0.200326
v -0.134211 0.532948 -0.220326
v -0.174211 0.492947 -0.220326
v -0.154211 0.527589 -0.220326
v -0.168852 0.512947 -0.220326
v -0.160526 0.613016 -0.220326
v -0.200526 0.573015 -0.220326
v -0.180526 0.607657 -0.220326
v -0.195167 0.593016 -0.220326
v -0.160526 0.613016 0.200326
v -0.200526 0.573015 0.200326
v -0.180526 0.607657 0.200326
v -0.195167 0.593015 0.200326
v -0.134211 0.532833 0.210108
v -0.174211 0.492832 0.210108
v -0.200476 0.532833 0.210108
v -0.174211 0.572833 0.210108
v -0.154211 0.527474 0.210108
v -0.168852 0.512833 0.210108
v -0.200526 0.572900 0.210108
v -0.174211 0.612901 0.210108
v -0.197001 0.592901 0.210108
v -0.187368 0.607542 0.210108
v -0.174211 0.492947 -0.230109
v -0.134211 0.532948 -0.230109
v -0.174211 0.572948 -0.230109
v -0.200476 0.532948 -0.230109
v -0.168852 0.512947 -0.230109
v -0.154211 0.527589 -0.230109
v -0.174211 0.613016 -0.230109
v -0.200526 0.573015 -0.230109
v -0.187368 0.607657 -0.230109
v -0.197001 0.593016 -0.230109
v 0.193158 0.613016 0.200326
v 0.223158 0.643016 0.201337
v 0.223158 0.612902 0.210058
v 0.208158 0.617035 0.200462
v 0.219139 0.628016 0.200831
v 0.223158 0.643016 -0.220326
v 0.193158 0.613016 -0.220326
v 0.223158 0.613016 -0.230059
v 0.219139 0.628016 -0.220326
v 0.208158 0.617035 -0.220326
v 0.233230 0.898507 0.209941
v 0.238426 0.903502 0.210109
v 0.233686 0.900419 0.210005
v 0.234833 0.902039 0.210060
v 0.236498 0.903122 0.210096
v 0.233230 0.898507 -0.220326
v 0.238426 0.903502 -0.220326
v 0.233686 0.900418 -0.220326
v 0.234833 0.902039 -0.220326
v 0.236498 0.903122 -0.220326
v 0.233250 0.898391 0.219723
v 0.238426 0.903388 0.219891
v 0.233698 0.900303 0.219787
v 0.234839 0.901924 0.219842
v 0.236500 0.903007 0.219878
v 0.238426 0.903502 -0.230109
v 0.233250 0.898506 -0.230109
v 0.236500 0.903122 -0.230109
v 0.234839 0.902039 -0.230109
v 0.233698 0.900418 -0.230109
vn -0.0000 1.0000 -0.0000
vn -1.0000 -0.0000 -0.0000
vn -0.9764 -0.2159 -0.0000
vn 0.9764 0.2159 -0.0000
vn -0.0000 -0.0000 1.0000
vn -0.0000 -0.0000 -1.0000
vn 1.0000 -0.0000 -0.0000
vn -0.0000 0.9999 0.0117
vn -0.2588 0.9659 -0.0000
vn -0.7071 0.7071 -0.0000
vn -0.9659 0.2588 -0.0000
vn 0.2927 -0.9055 -0.3071
vn 0.7286 -0.6040 -0.3231
vn 0.9722 -0.2159 -0.0911
vn 0.2588 -0.9659 -0.0000
vn 0.7071 -0.7071 -0.0000
vn 0.9659 -0.2588 -0.0000
vn -0.9659 0.2588 0.0030
vn -0.7071 0.7071 0.0083
vn -0.2588 0.9659 0.0113
vn 0.9724 -0.2160 0.0886
vn 0.7303 -0.6053 0.3167
vn 0.2937 -0.9085 0.2974
vn 0.2045 -0.7416 -0.6390
vn 0.4176 -0.3900 -0.8207
vn 0.7571 -0.1817 -0.6275
vn 0.7551 -0.2023 0.6236
vn 0.4146 -0.4146 0.8101
vn 0.2023 -0.7551 0.6236
vn -0.0000 -0.9999 -0.0117
vn -0.0000 -1.0000 -0.0000
vn 0.1936 -0.9810 -0.0115
vn 0.5459 -0.8378 -0.0101
vn 0.8170 -0.5766 -0.0076
vn 0.9732 -0.2300 -0.0043
vn 0.9727 -0.2320 -0.0000
vn 0.8161 -0.5779 -0.0000
vn 0.5453 -0.8383 -0.0000
vn 0.1934 -0.9811 -0.0000
vn 0.9732 -0.2301 0.0016
vn 0.8169 -0.5768 0.0008
vn 0.5458 -0.8379 0.0002
vn 0.1936 -0.9811 -0.0000
vn 0.9977 -0.0352 -0.0585
vn 0.9992 -0.0394 -0.0000
vn 0.9976 -0.0372 0.0580
vn -0.0000 0.0337 -0.9994
vt 0.625000 0.500000
vt 0.375000 0.500000
vt 0.375000 0.750000
vt 0.625000 0.750000
vt 0.875000 0.500000
vt 0.875000 0.750000
vt 0.625000 0.250000
vt 0.625000 0.000000
vt 0.625000 0.976537
vt 0.625000 1.000000
vt 0.625000 1.000000
vt 0.508234 1.000000
vt 0.625000 0.273463
vt 0.508234 0.250000
vt 0.849834 0.750000
vt 0.849834 0.500000
vt 0.862417 0.500000
vt 0.862417 0.750000
vt 0.875000 0.500000
vt 0.875000 0.750000
vt 0.875000 0.750000
vt 0.875000 0.500000
vt 0.862417 0.500000
vt 0.849835 0.500000
vt 0.125000 0.500000
vt 0.389562 0.250000
vt 0.375000 0.250000
vt 0.437448 0.250000
vt 0.437448 0.250000
vt 0.499896 0.250000
vt 0.499896 0.250000
vt 0.125000 0.750000
vt 0.375000 0.000000
vt 0.437448 0.000000
vt 0.499897 0.000000
vt 0.849834 0.750000
vt 0.499897 0.000000
vt 0.437448 0.000000
vt 0.125000 0.750000
vt 0.375000 1.000000
vt 0.499897 1.000000
vt 0.437448 1.000000
vt 0.391733 1.000000
vt 0.375000 0.250000
vt 0.356126 0.750000
vt 0.365563 0.750080
vt 0.375000 0.750000
vt 0.372471 0.750300
vt 0.375000 0.750600
vt 0.375000 0.500000
vt 0.375000 0.500000
vt 0.356126 0.500000
vt 0.365563 0.500000
vt 0.375000 0.750000
vt 0.375000 0.750000
vt 0.375000 0.749993
vt 0.375000 0.749972
vt 0.375000 0.750000
vt 0.375000 0.500000
vt 0.375000 0.500000
vt 0.375000 0.500000
s 0
f 4/1/1 5/1/1 33/1/1 32/1/1
f 5/1/2 6/2/2 34/2/2 33/1/2
f 7/3/2 8/4/2 24/4/2 25/3/2
f 6/2/2 5/1/2 8/4/2 7/3/2
f 8/4/3 5/1/3 13/1/3 14/4/3
f 20/5/1 18/5/1 38/5/1 37/5/1
f 6/2/2 7/3/2 9/3/2 10/2/2
f 11/1/1 12/4/1 14/4/1 13/1/1
f 4/1/4 3/4/4 12/4/4 11/1/4
f 5/1/5 4/1/5 11/1/5 13/1/5
f 3/4/6 8/4/6 14/4/6 12/4/6
f 17/6/1 18/5/1 20/5/1 19/6/1
f 16/7/7 15/8/7 19/8/7 20/7/7
f 22/4/6 23/3/6 25/3/6 24/4/6
f 19/8/7 15/8/7 27/8/7 29/8/7
f 17/6/8 19/6/8 29/6/8 28/6/8
f 9/3/2 7/3/2 25/3/2 26/3/2
f 8/4/8 3/4/8 22/4/8 24/4/8
f 31/2/5 32/1/5 33/1/5 34/2/5
f 6/2/2 10/2/2 35/2/2 34/2/2
f 16/7/7 20/7/7 37/7/7 36/7/7
f 55/9/6 59/10/6 60/10/6 56/10/6 57/11/6 58/12/6
f 65/7/5 69/7/5 70/7/5 66/13/5 67/14/5 68/7/5
f 40/15/9 43/16/9 45/17/9 42/18/9
f 42/18/10 45/17/10 46/19/10 41/20/10
f 41/20/11 46/19/11 44/5/11 39/21/11
f 65/5/11 44/5/11 46/19/11 69/22/11
f 69/22/10 46/19/10 45/17/10 70/23/10
f 70/23/9 45/17/9 43/16/9 66/24/9
f 71/25/12 47/25/12 49/25/12 73/25/12
f 73/26/13 49/27/13 50/28/13 74/29/13
f 74/29/14 50/28/14 48/30/14 72/31/14
f 47/25/15 51/32/15 53/32/15 49/25/15
f 49/27/16 53/33/16 54/34/16 50/28/16
f 50/28/17 54/34/17 52/35/17 48/30/17
f 39/21/18 56/21/18 60/6/18 41/20/18
f 41/20/19 60/6/19 59/18/19 42/18/19
f 42/18/20 59/18/20 55/36/20 40/15/20
f 61/37/21 52/35/21 54/34/21 63/38/21
f 63/38/22 54/34/22 53/33/22 64/33/22
f 64/32/23 53/32/23 51/32/23 62/39/23
f 39/21/2 44/5/2 18/5/2 17/6/2
f 4/1/1 43/16/1 40/15/1 3/4/1
f 3/4/8 40/15/8 55/36/8 22/4/8
f 39/21/2 17/6/2 28/6/2 56/21/2
f 18/5/2 44/5/2 65/5/2 38/5/2
f 43/16/1 4/1/1 32/1/1 66/24/1
f 2/25/1 47/25/1 71/25/1 30/25/1
f 52/35/7 15/8/7 16/7/7 48/30/7
f 48/30/7 16/7/7 36/7/7 72/31/7
f 2/25/1 1/32/1 51/32/1 47/25/1
f 51/32/8 1/32/8 21/32/8 62/39/8
f 15/8/7 52/35/7 61/37/7 27/8/7
f 21/40/6 58/12/6 57/11/6 27/10/6 61/41/6 63/42/6 64/43/6 62/40/6
f 27/10/6 57/11/6 56/10/6 28/10/6 29/10/6
f 23/3/6 22/4/6 55/9/6 58/12/6 21/40/6
f 68/7/5 67/14/5 30/44/5 71/44/5 73/26/5 74/29/5 72/31/5 36/7/5
f 30/44/5 67/14/5 66/13/5 32/1/5 31/2/5
f 65/7/5 68/7/5 36/7/5 37/7/5 38/7/5
f 75/45/24 78/46/24 77/47/24
f 78/46/25 79/48/25 77/47/25
f 79/48/26 76/49/26 77/47/26
f 80/50/27 83/2/27 82/2/27
f 83/2/28 84/51/28 82/2/28
f 84/51/29 81/2/29 82/2/29
f 75/45/15 81/52/15 84/53/15 78/46/15
f 78/46/16 84/53/16 83/51/16 79/47/16
f 79/47/17 83/51/17 80/50/17 76/54/17
f 1/32/30 75/45/30 77/47/30 23/3/30 21/32/30
f 2/25/31 81/52/31 75/45/31 1/32/31
f 82/2/31 81/52/31 2/25/31 30/25/31 31/2/31
f 86/55/32 96/3/32 99/55/32 89/56/32
f 89/56/33 99/55/33 98/55/33 88/57/33
f 88/57/34 98/55/34 97/47/34 87/58/34
f 87/58/35 97/47/35 95/47/35 85/47/35
f 85/47/36 90/2/36 92/59/36 87/58/36
f 87/58/37 92/59/37 93/2/37 88/57/37
f 88/57/38 93/2/38 94/51/38 89/56/38
f 89/56/39 94/51/39 91/60/39 86/55/39
f 90/2/40 101/51/40 104/61/40 92/59/40
f 92/59/41 104/61/41 103/51/41 93/2/41
f 93/2/42 103/51/42 102/51/42 94/51/42
f 94/51/43 102/51/43 100/2/43 91/60/43
f 77/47/44 76/54/44 85/47/44 95/47/44 23/3/44
f 86/55/31 91/60/31 10/2/31 9/3/31
f 86/55/30 9/3/30 26/3/30 96/3/30
f 76/54/45 80/50/45 90/2/45 85/47/45
f 10/2/31 91/60/31 100/2/31 35/2/31
f 90/2/46 80/50/46 82/2/46 31/2/46 101/51/46
f 25/3/47 23/3/47 95/47/47 97/47/47 98/55/47 99/55/47 96/3/47 26/3/47
f 31/2/5 34/2/5 35/2/5 100/2/5 102/51/5 103/51/5 104/61/5 101/51/5
